<?xml version="1.0" encoding="utf-8"?>
<!-- Generator: Adobe Illustrator 27.9.2, SVG Export Plug-In . SVG Version: 6.00 Build 0)  -->
<svg version="1.1" id="Layer_1" xmlns="http://www.w3.org/2000/svg" xmlns:xlink="http://www.w3.org/1999/xlink" x="0px" y="0px"
	 viewBox="0 0 35 44" style="enable-background:new 0 0 35 44;" xml:space="preserve">
<style type="text/css">
	.st0{display:none;fill:none;}
	.st1{fill:#F99D1C;}
</style>
<path class="st0" d="M13.3,42.2c0,0,15.4,0.2,19.7-14C37.3,14.1,19.5,15.3,25,2c0,0-14.3,0-13.6,17.3c0,0-4.4-1.9-2.7-8.6
	c0,0-6.7,1.1-6.7,11.4C2,32.4,15.2,28.9,13.3,42.2L13.3,42.2z"/>
<path class="st1" d="M23.4,12.3C17.8,4.7,19.9,0,19.9,0c-11.1,7.2-7.8,21.9-7.8,21.9C9.8,20.3,9,15.8,9,15.8
	C-0.5,29,3.6,43.2,16.2,44c0.9,0.1,5.1-0.4,5.9-0.8c7.9-3.9,8.7-11,9.1-13.4C31.3,24.9,28.9,19.9,23.4,12.3z"/>
</svg>
