<?xml version="1.0" encoding="utf-8"?>
<!-- Generator: Adobe Illustrator 28.2.0, SVG Export Plug-In . SVG Version: 6.00 Build 0)  -->
<svg version="1.1" id="Layer_1" xmlns="http://www.w3.org/2000/svg" xmlns:xlink="http://www.w3.org/1999/xlink" x="0px" y="0px"
	 viewBox="0 0 35 44" style="enable-background:new 0 0 35 44;" xml:space="preserve">
<style type="text/css">
	.st0{fill:#C9155B;}
	.st1{fill:#FF1467;}
</style>
<g>
	<path class="st0" d="M18.5,43.4c-3.1,0-5.6-0.2-8.1-2.6c-3-3-4.5-6.9-4.5-11.4C5.9,26.8,7,24,8.2,21c0.7-1.7,1.4-3.5,1.9-5.3
		c0.6-2.1,0.9-4.1,1-5.5c0.5,1.2,1,2.7,1.2,4.1c0.2,1.2,0.3,2.3,0.4,3.2c0.1,1.5,0.2,2.5,1,2.5l0.1,0l0.1,0l0.1-0.1
		c0.2-0.2,2.3-2.2,2.7-11.2c0.1-2.8,0.5-4.8,0.8-6.1c0.2,2.1,0.6,5.1,1.6,7.9c1.9,4.6,2.4,8.3,2.4,8.4l0.1,0.4h0.4
		c0.6,0,2.1-1.4,2.5-4c0.1-1.2,0.2-2.5,0.2-3.5c1.1,2.9,2.8,7.7,3.4,10.2c0.7,3,1,7,0.8,10.9c-0.1,1.3-0.5,4.8-3.5,8.1
		C23.5,43.2,20,43.4,18.5,43.4z"/>
	<path class="st1" d="M17.5,6c0.3,1.5,0.7,3.1,1.3,4.7c1.8,4.5,2.3,8.2,2.3,8.3l0.1,0.9h0.9c1.1,0,2.6-1.8,3-4.4l0,0l0,0
		c0-0.4,0.1-0.7,0.1-1.1c1,2.7,2.1,5.9,2.5,7.8c0.7,3,1,6.9,0.8,10.7c-0.1,1.3-0.5,4.6-3.3,7.8c-1.9,2.1-5.3,2.4-6.7,2.4
		c-2.9,0-5.4-0.2-7.7-2.4c-2.9-2.9-4.4-6.7-4.4-11.1c0-2.5,1.1-5.3,2.2-8.2c0.7-1.7,1.4-3.5,1.9-5.4c0.3-1.2,0.6-2.4,0.7-3.4
		c0.2,0.7,0.4,1.4,0.5,2.1c0.2,1.1,0.3,2.2,0.4,3.1c0.1,1.6,0.2,2.9,1.5,2.9l0.1,0l0.1,0l0.3,0l0.2-0.2c0.2-0.2,2.4-2.3,2.8-11.5
		C17.4,7.7,17.4,6.8,17.5,6 M18,0.1c0,0-1.4,2-1.7,8.6c-0.4,9-2.5,10.8-2.5,10.8c0,0,0,0,0,0c-0.6,0-0.4-2.4-1-5.2
		c-0.5-2.8-2.1-6.2-2.1-6.2s0,3.5-1.1,7.5c-1.5,5.1-4.2,9.6-4.2,13.8c0,5.8,2.4,9.5,4.7,11.8c2.6,2.5,5.3,2.7,8.4,2.7
		c2.6,0,5.6-0.7,7.4-2.7c2.7-3,3.5-6.3,3.6-8.4c0.2-4.4-0.2-8.3-0.8-11C27.8,18,24.3,9,24.3,9s0.1,3.4-0.2,6.2
		c-0.4,2.5-1.7,3.6-2,3.6c0,0-0.5-3.8-2.4-8.5C17.9,5.6,18,0.1,18,0.1L18,0.1z"/>
</g>
</svg>
