<?xml version="1.0" encoding="UTF-8"?>
<svg id="Layer_1" data-name="Layer 1" xmlns="http://www.w3.org/2000/svg" version="1.1" viewBox="0 0 35 44">
  <defs>
    <style>
      .cls-1 {
        display: none;
      }

      .cls-1, .cls-2 {
        fill: #fff;
        stroke-width: 0px;
      }
    </style>
  </defs>
  <path class="cls-1" d="M13.3,42.2s15.4.2,19.7-14c4.3-14.1-13.5-12.9-8-26.2,0,0-14.3,0-13.6,17.3,0,0-4.4-1.9-2.7-8.6,0,0-6.7,1.1-6.7,11.4s13.2,6.8,11.3,20.1h0Z"/>
  <g>
    <path class="cls-2" d="M5.5,30.8c0-1.4.2-2.8.7-4.2l5.6-17,2.3,6.9L18.3.3l4.3,16.1,2.2-6.9,5.6,17c.5,1.4.7,2.8.7,4.2,0,7.1-5.8,12.9-12.9,12.9s-12.9-5.8-12.9-12.9"/>
    <path class="cls-2" d="M11.7,19.2l-2.7,8.3c-.4,1.1-.6,2.2-.6,3.3,0,5.4,4.4,9.9,9.9,9.9s9.9-4.4,9.9-9.9-.2-2.2-.5-3.2l-2.7-8.4-2.5,7.7-2.6-9.7-1.5-5.4-1.5,5.4-2.6,9.7-2.5-7.7Z"/>
  </g>
</svg>