<?xml version="1.0" encoding="utf-8"?>
<!-- Generator: Adobe Illustrator 27.9.2, SVG Export Plug-In . SVG Version: 6.00 Build 0)  -->
<svg version="1.1" id="Layer_1" xmlns="http://www.w3.org/2000/svg" xmlns:xlink="http://www.w3.org/1999/xlink" x="0px" y="0px"
	 viewBox="0 0 35 44" style="enable-background:new 0 0 35 44;" xml:space="preserve">
<style type="text/css">
	.st0{display:none;fill:#FFFFFF;}
	.st1{fill:#F4F4F4;}
	.st2{fill:#FFFFFF;}
</style>
<path class="st0" d="M13.3,42.2c0,0,15.4,0.2,19.7-14C37.3,14.1,19.5,15.3,25,2c0,0-14.3,0-13.6,17.3c0,0-4.4-1.9-2.7-8.6
	c0,0-6.7,1.1-6.7,11.4C2,32.4,15.2,28.9,13.3,42.2L13.3,42.2z"/>
<path class="st1" d="M23.4,12.3C17.8,4.7,19.9,0,19.9,0c-11.1,7.2-7.8,21.9-7.8,21.9C9.8,20.3,9,15.8,9,15.8
	C-0.5,29,3.6,43.2,16.2,44c0.9,0.1,5.1-0.4,5.9-0.8c7.9-3.9,8.7-11,9.1-13.4C31.3,24.9,28.9,19.9,23.4,12.3z"/>
<path id="XMLID_4_" class="st2" d="M9,15.8c0,0,0.8,4.5,3.1,6.1c0,0-3.3-14.8,7.8-21.9c0,0-2,4.7,3.5,12.3s7.9,12.6,7.8,17.5
	C30.8,32.2,31.7,39,19.5,44c3.9-2.9,8.8-8.3,2.9-16.5c0,0-0.5,2.8-1.9,3.8c0,0,2-9.2-4.8-13.7c0,0,1.3,2.9-2.2,7.7
	s-4.6,7.4-4.2,10.3c0.3,2.1,0.2,4.3,7.1,8.4C3.7,43.4-0.6,29.1,9,15.8z"/>
</svg>
