<?xml version="1.0" encoding="utf-8"?>
<!-- Generator: Adobe Illustrator 28.2.0, SVG Export Plug-In . SVG Version: 6.00 Build 0)  -->
<svg version="1.1" id="Layer_1" xmlns="http://www.w3.org/2000/svg" xmlns:xlink="http://www.w3.org/1999/xlink" x="0px" y="0px"
	 viewBox="0 0 35 44" style="enable-background:new 0 0 35 44;" xml:space="preserve">
<style type="text/css">
	.st0{fill:none;}
</style>
<path class="st0" d="M24.3,9.2c0,0,3.5,9,4.4,12.8c0.6,2.7,1,6.6,0.8,11c-0.1,2.1-0.9,5.4-3.6,8.4c-1.8,1.9-4.8,2.6-7.4,2.6
	c-3.1,0-5.8-0.2-8.4-2.7c-2.3-2.3-4.7-6-4.7-11.8c0-4.2,2.7-8.7,4.2-13.8c1.1-4,1.1-7.5,1.1-7.5s1.6,3.4,2.1,6.2
	c0.6,2.9,0.3,5.3,1,5.2c0,0,2.1-1.8,2.5-10.8C16.6,2,18,0,18,0s-0.1,5.5,1.7,10.2c1.9,4.7,2.4,8.5,2.4,8.5c0.3,0,1.6-1.1,2-3.6
	S24.3,9.2,24.3,9.2z"/>
</svg>
