<?xml version="1.0" encoding="UTF-8"?>
<svg id="Layer_1" data-name="Layer 1" xmlns="http://www.w3.org/2000/svg" version="1.1" viewBox="0 0 35 44">
  <defs>
    <style>
      .cls-1 {
        fill: #fff;
        stroke: #f89d1d;
        stroke-miterlimit: 10;
      }

      .cls-2 {
        display: none;
        fill: none;
      }

      .cls-2, .cls-3 {
        stroke-width: 0px;
      }

      .cls-3 {
        fill: #f89d1d;
      }
    </style>
  </defs>
  <path class="cls-2" d="M13.3,42.2s15.4.2,19.7-14c4.3-14.1-13.5-12.9-8-26.2,0,0-14.3,0-13.6,17.3,0,0-4.4-1.9-2.7-8.6,0,0-6.7,1.1-6.7,11.4s13.2,6.8,11.3,20.1h0Z"/>
  <g>
    <path class="cls-1" d="M5.1,31.2c0-1.4.2-2.7.7-4.1l5.4-16.4,2.2,6.6L17.5,1.8l4.2,15.5,2.2-6.6,5.4,16.4c.5,1.3.7,2.7.7,4,0,6.8-5.6,12.4-12.4,12.4s-12.4-5.6-12.4-12.4"/>
    <path class="cls-3" d="M11.1,20l-2.6,8c-.4,1.1-.5,2.1-.5,3.2,0,5.3,4.3,9.5,9.5,9.5s9.5-4.3,9.5-9.5-.2-2.1-.5-3.1l-2.6-8.1-2.4,7.4-2.5-9.3-1.4-5.2-1.4,5.2-2.5,9.3-2.4-7.4Z"/>
  </g>
</svg>