<?xml version="1.0" encoding="UTF-8"?>
<svg id="Layer_2" data-name="Layer 2" xmlns="http://www.w3.org/2000/svg" viewBox="0 0 39.23 39.23">
  <defs>
    <style>
      .cls-1 {
        fill: none;
        stroke: #fff;
        stroke-miterlimit: 10;
        stroke-width: 2px;
      }

      .cls-2 {
        fill: #fff;
        stroke-width: 0px;
      }
    </style>
  </defs>
  <g id="Theme_Types" data-name="Theme Types">
    <g id="Noise">
      <path class="cls-1" d="M28.34,32.26l4.13-3.96V11.11l-3.96-4.13H10.9l-4.13,3.96v17.19l3.96,4.13h17.61ZM13.12,39.23v-6.98M19.62,39.23v-6.98M26.12,39.23v-6.98M13.12,6.98V0M19.62,6.98V0M26.12,6.98V0M39.23,26.12h-6.98M39.23,19.62h-6.98M39.23,13.12h-6.98M6.98,26.12H0M6.98,19.62H0M6.98,13.12H0"/>
      <rect class="cls-2" x="12.62" y="13.06" width="4" height="4"/>
      <rect class="cls-2" x="22.62" y="13.06" width="4" height="4"/>
      <rect class="cls-2" x="12.62" y="23.06" width="4" height="4"/>
      <rect class="cls-2" x="22.62" y="23.06" width="4" height="4"/>
    </g>
  </g>
</svg>