<?xml version="1.0" encoding="UTF-8"?>
<svg id="Layer_2" data-name="Layer 2" xmlns="http://www.w3.org/2000/svg" viewBox="0 0 38.9 42.91">
  <defs>
    <style>
      .cls-1 {
        fill: none;
        stroke: #fff;
        stroke-linecap: square;
        stroke-linejoin: round;
        stroke-width: 2px;
      }
    </style>
  </defs>
  <g id="Theme_Types" data-name="Theme Types">
    <path id="Self" class="cls-1" d="M1,17.97c3.36,0,6.09,2.55,9.45,2.55M5.78,19.57s-.34,8.17.64,11.36,9.79,11.07,16.6,10.98c.78-.01,9.61-.28,13.4-7.28,3.78-6.97-.75-14.5-1.79-16.09-2.9-4.46-7.02-6.42-8.81-7.15M30.68,8.52c-4.55.8-6.48,2.87-9.22,6.5M24.72,34.81c1.26-2.61,1.34-5.82-1.96-9.18-1.5-1.53-3.62-3.52-4.04-5.1M30.21,25.53c-2.26-1.23-5.53.14-7.45.1M11.91,15.87c-2.58-3.45-5.81-4.97-9.98-4.47M9.15,13.1c1.84-3.63,1.76-6.5-.45-8.72M28.25,3.32c-1.77-.02-10.09,3.33-12.19,6.49M16.51,9.23c.38-3.41.35-5.42-.45-7.98"/>
  </g>
</svg>