<?xml version="1.0" encoding="UTF-8"?>
<svg id="Layer_1" data-name="Layer 1" xmlns="http://www.w3.org/2000/svg" version="1.1" viewBox="0 0 512 512">
  <defs>
    <style>
      .cls-1 {
        fill: #fff;
        stroke-width: 0px;
      }
    </style>
  </defs>
  <path class="cls-1" d="M261,17c-27.1.1-53.9,2.3-77.1,5.5l10.8,39.3c44.2-9.1,90.4-6.1,136.8.1l8.2-37.9c-24.3-5.1-51.6-7.1-78.7-7h0ZM167.7,34.2c-10.9,2.8-21.5,6-31.6,9.8-8.7,3.2-14,10.1-20.1,19.1-6.1,9-12.4,20.5-18.9,33.8-13,26.6-26.5,60.2-38.9,93.5-12,32.1-22.8,63.5-30.8,87.6,6.4-5.1,14.3-8.3,22.8-8.1,7.3-21.5,16.2-46.9,25.8-72.8,12.3-32.9,25.8-66.2,38.2-91.8,6.2-12.9,12.2-23.7,17.5-31.4,5.3-7.7,10.4-11.8,11-12,9.6-3.6,19.6-6.6,30-9.2l-4.9-18.4ZM355.7,39.7l-4.1,18.8c11.9,4.2,23.2,9.3,33.8,15.3,3.1,1.7,9,8,15,18,5.9,9.9,12.3,23.1,18.7,38.4,12.9,30.5,25.7,69.2,37.2,107.1,3.3,11,6.5,21.8,9.6,32.4,7.7,1.1,14.9,4.7,20.6,10,.9.8,1.8,1.7,2.6,2.6-4.5-16.1-9.4-33.2-14.7-50.5-11.5-38.3-24.6-77.4-37.9-109-6.5-15.8-13.3-29.6-19.9-40.8-6.8-11.1-13.2-19.7-21.7-24.6-12.3-7-25.4-12.8-39.1-17.6h0ZM321.7,203.9l-133.2,1.2h-.5c-32,3.5-56.3,32.3-60.9,69.7,6.4.3,12.8.6,19,.8,4-29.3,22.6-49.3,43.8-51.6l130.1-1.2c16.5,2.7,34.1,19.6,38.6,51.6,6.2-.3,12.6-.5,19-.8-5.2-39.6-28-65.4-55.1-69.6h-.7ZM460.9,288.4c-28,1.5-54.5,3-80.2,4.1,16.7,64.3,15.9,129.3,15.8,193.3,30.7-3,62.2-6.4,94.9-10.3.6-.1,2.3-.7,4.7-5.4,2.4-4.5,4.7-12,6.2-21.3,3.1-18.6,3.4-43.8.7-68.8-2.7-24.9-8.5-49.6-16.6-66.9-4-8.7-8.5-15.4-13-19.4-4.5-4-8.3-5.5-12.8-5.3ZM48.5,288.8c-3.6.1-6.7,1.6-10.5,5.1-4.3,3.9-8.7,10.7-12.6,19.3-7.8,17.4-13.4,42.4-16.1,67.7-2.8,25.3-2.8,51.1-.4,70.2,1.2,9.5,3.1,17.4,5.1,22.2,2,4.9,3.8,5.2,2.5,5,32,5.4,63.2,9.3,94.1,12-5.9-61.4-3.7-126.4,12.6-196.6-23.3-1.1-47.6-2.6-73.1-4.6-.5,0-1.1-.1-1.6-.1h0ZM361.3,293.3c-74.3,3.2-142.2,4.3-218.9,1.2-16.8,70.7-18.9,135.3-12.6,197.3,82.1,5.9,162,3.3,247.7-4.3.1-66,.8-131.2-16.2-194.1h0Z"/>
</svg>