<?xml version="1.0" encoding="UTF-8"?>
<svg id="Layer_1" data-name="Layer 1" xmlns="http://www.w3.org/2000/svg" version="1.1" viewBox="0 0 512 512">
  <defs>
    <style>
      .cls-1 {
        fill: #fff;
        stroke-width: 0px;
      }
    </style>
  </defs>
  <path class="cls-1" d="M245.9,4v26.1c-116.7,5.2-210.6,99-215.8,215.8H4v20.2h26.1c5.2,116.7,99,210.6,215.8,215.8v26.1h20.2v-26.1c116.7-5.2,210.6-99,215.8-215.8h26.1v-20.2h-26.1c-5.2-116.7-99-210.6-215.8-215.8V4h-20.2ZM245.9,50.4v61.6h20.2v-61.6c105.8,5.1,190.4,89.7,195.5,195.5h-61.6v20.2h61.6c-5.1,105.8-89.7,190.4-195.5,195.5v-61.6h-20.2v61.6c-105.8-5.1-190.4-89.7-195.5-195.5h61.6v-20.2h-61.6c5.1-105.8,89.7-190.4,195.5-195.5ZM245.9,220v25.9h-25.9v20.2h25.9v25.9h20.2v-25.9h25.9v-20.2h-25.9v-25.9h-20.2Z"/>
</svg>