<?xml version="1.0" encoding="UTF-8"?>
<svg id="Layer_2" data-name="Layer 2" xmlns="http://www.w3.org/2000/svg" viewBox="0 0 42.9 37.08">
  <defs>
    <style>
      .cls-1 {
        fill: none;
        stroke: #fff;
        stroke-linejoin: round;
        stroke-width: 2px;
      }

      .cls-2 {
        fill: #fff;
        stroke-width: 0px;
      }
    </style>
  </defs>
  <g id="Theme_Types" data-name="Theme Types">
    <g id="Mythos">
      <path class="cls-2" d="M39.26,2l1.39,2.93-17.25,30.15h-3.85L2.26,4.94l1.44-2.94h35.56M40.53,0H2.45L0,5.02l18.4,32.06h6.16L42.9,5.02l-2.37-5.02h0Z"/>
      <path class="cls-1" d="M39.32,18.32s-7.46,6.64-17.89,6.64S3.53,18.32,3.53,18.32c0,0,.97-1.77,2.69-4.03,3.06-4.02,8.53-9.61,15.2-9.61s11.88,5.62,14.98,9.61c1.86,2.4,2.91,4.03,2.91,4.03ZM36.72,14.82c-10.1-5.34-20.66-5.48-30.69-.28M21.43,10.54c-2.6,0-4.7,2.11-4.7,4.7s2.11,4.7,4.7,4.7,4.7-2.11,4.7-4.7-2.11-4.7-4.7-4.7Z"/>
    </g>
  </g>
</svg>