<?xml version="1.0" encoding="UTF-8"?>
<svg id="Layer_1" data-name="Layer 1" xmlns="http://www.w3.org/2000/svg" version="1.1" viewBox="0 0 512 512">
  <defs>
    <style>
      .cls-1 {
        fill: #fff;
        stroke-width: 0px;
      }
    </style>
  </defs>
  <path class="cls-1" d="M2.3,0v397.3C102.9,252.4,271.9,150.4,445,124.5L227.7,0H2.3ZM332.4,173.5C197.6,221.5,74.9,315.3,1.5,435.3v36.2c121.7-120,298.1-189.8,467.4-188.6l-136.5-109.3h0ZM359.9,312C225.2,335.3,94.2,402,1.5,500.1v11.1h63.4c122.6-70.6,270.3-102.6,408.3-87l-113.3-112.2h0ZM357.5,442.2c-86.2,6.3-172.6,30.1-250.3,69h286.7l-36.4-69h0Z"/>
</svg>