<?xml version="1.0" encoding="utf-8"?>
<!-- Generator: Adobe Illustrator 27.9.2, SVG Export Plug-In . SVG Version: 6.00 Build 0)  -->
<svg version="1.1" id="Layer_1" xmlns="http://www.w3.org/2000/svg" xmlns:xlink="http://www.w3.org/1999/xlink" x="0px" y="0px"
	 viewBox="0 0 512 512" style="enable-background:new 0 0 512 512;" xml:space="preserve">
<style type="text/css">
	.st0{fill:#FFFFFF;}
</style>
<g>
	<g>
		<path class="st0" d="M321.9,39.9c-0.2,0-0.3,0.1-0.2,0.2c1,0.4,2.1,0.8,3.1,1.1c-0.6-0.3-1.3-0.6-1.9-1
			C322.5,40,322.2,39.9,321.9,39.9L321.9,39.9z"/>
	</g>
	<g>
		<path class="st0" d="M119.2,83.1c5.1,7.8,9.4,15.6,10.1,19.5c0.5,12.5-4.3,108.3-8.4,184.8L64,131.5l15.9-34.1L119.2,83.1
			 M126.6,59.1L65.2,81.5l-22.8,49.1l93.1,255c0.2-0.2,15.4-273,13.7-285.3C147.1,84.9,126.6,59.1,126.6,59.1L126.6,59.1z"/>
	</g>
	<g>
		<g id="XMLID_00000096054176167642378200000000887606539460330400_">
			<path class="st0" d="M469.6,3.2v461.6l-44.1,44.1H113.3V47.3l44.1-44.1H469.6z M408.8,315.1v-20H174.1v20H408.8z M408.8,257.3
				v-20H174.1v20H408.8z M408.8,199.5v-20H174.1v20H408.8z M408.8,141.7v-20H174.1v20H408.8z M408.8,380.3c-3.1-3.6-6.9-7-10.5-10
				c-15.1,0-37.3,0-52.4,0h-5.2c-0.9,0-3.1,0.1-3.9-0.1c-0.4-0.1-0.9-0.4-1.3,0c-0.9,0.7-1.7,1.5-2.6,2.2c-2.8,2.5-5.4,5-7.9,7.9
				c2.4,2.9,5.1,5.4,7.9,7.9c0.9,0.7,1.8,1.5,2.6,2.2c0.4,0.3,0.9,0.1,1.3,0c0.8-0.2,3.1,0,3.9-0.1h5.2c15.1,0,37.4,0,52.4,0
				C401.9,387.3,405.7,383.8,408.8,380.3z M258,380.3c-3.1-3.6-6.9-7-10.5-10c-15.1,0-37.3,0-52.4,0h-5.2c-0.9,0-3.1,0.1-3.9-0.1
				c-0.4-0.1-0.9-0.4-1.3,0c-0.9,0.7-1.8,1.5-2.6,2.2c-2.8,2.5-5.4,5-7.9,7.9c2.4,2.9,5.1,5.4,7.9,7.9c0.9,0.7,1.8,1.5,2.6,2.2
				c0.4,0.3,0.9,0.1,1.3,0c0.8-0.2,3.1,0,3.9-0.1h5.2c15.1,0,37.4,0,52.4,0C251.1,387.3,254.9,383.8,258,380.3z"/>
		</g>
	</g>
</g>
</svg>
